<?xml version="1.0" encoding="UTF-8"?>
<svg width="380" height="220" viewBox="0 0 380 220" xmlns="http://www.w3.org/2000/svg">
  <defs>
    <linearGradient id="bgGradient" x1="0%" y1="0%" x2="100%" y2="100%">
      <stop offset="0%" stop-color="#0f172a" stop-opacity="0.7"/>
      <stop offset="100%" stop-color="#0d1017" stop-opacity="0.7"/>
    </linearGradient>
    <linearGradient id="lineGradient" x1="0%" y1="0%" x2="100%" y2="0%">
      <stop offset="0%" stop-color="#3b82f6" stop-opacity="0.8"/>
      <stop offset="100%" stop-color="#6366f1" stop-opacity="0.9"/>
    </linearGradient>
  </defs>
  
  <!-- Background with grid -->
  <rect x="0" y="0" width="380" height="220" rx="4" fill="url(#bgGradient)"/>
  
  <!-- Grid lines -->
  <g opacity="0.1">
    <path d="M 60 20 V 180" stroke="#ffffff" stroke-width="1"/>
    <path d="M 100 20 V 180" stroke="#ffffff" stroke-width="1"/>
    <path d="M 140 20 V 180" stroke="#ffffff" stroke-width="1"/>
    <path d="M 180 20 V 180" stroke="#ffffff" stroke-width="1"/>
    <path d="M 220 20 V 180" stroke="#ffffff" stroke-width="1"/>
    <path d="M 260 20 V 180" stroke="#ffffff" stroke-width="1"/>
    <path d="M 300 20 V 180" stroke="#ffffff" stroke-width="1"/>
    <path d="M 340 20 V 180" stroke="#ffffff" stroke-width="1"/>
    
    <path d="M 60 180 H 340" stroke="#ffffff" stroke-width="1"/>
    <path d="M 60 140 H 340" stroke="#ffffff" stroke-width="1"/>
    <path d="M 60 100 H 340" stroke="#ffffff" stroke-width="1"/>
    <path d="M 60 60 H 340" stroke="#ffffff" stroke-width="1"/>
    <path d="M 60 20 H 340" stroke="#ffffff" stroke-width="1"/>
  </g>
  
  <!-- Axes and labels -->
  <path d="M 60 20 V 180 H 340" stroke="#94a3b8" stroke-width="1.5"/>
  
  <text x="200" y="205" fill="#cbd5e1" font-family="Arial" font-size="12" text-anchor="middle">Angle of Attack (α) - degrees</text>
  <text x="30" y="100" fill="#cbd5e1" font-family="Arial" font-size="12" text-anchor="middle" transform="rotate(-90, 30, 100)">Lift Coefficient (CL)</text>
  
  <!-- X-axis ticks and labels -->
  <g>
    <path d="M 60 180 V 185" stroke="#94a3b8" stroke-width="1.5"/>
    <text x="60" y="195" fill="#94a3b8" font-family="Arial" font-size="10" text-anchor="middle">0°</text>
    
    <path d="M 100 180 V 185" stroke="#94a3b8" stroke-width="1.5"/>
    <text x="100" y="195" fill="#94a3b8" font-family="Arial" font-size="10" text-anchor="middle">2°</text>
    
    <path d="M 140 180 V 185" stroke="#94a3b8" stroke-width="1.5"/>
    <text x="140" y="195" fill="#94a3b8" font-family="Arial" font-size="10" text-anchor="middle">4°</text>
    
    <path d="M 180 180 V 185" stroke="#94a3b8" stroke-width="1.5"/>
    <text x="180" y="195" fill="#94a3b8" font-family="Arial" font-size="10" text-anchor="middle">6°</text>
    
    <path d="M 220 180 V 185" stroke="#94a3b8" stroke-width="1.5"/>
    <text x="220" y="195" fill="#94a3b8" font-family="Arial" font-size="10" text-anchor="middle">8°</text>
    
    <path d="M 260 180 V 185" stroke="#94a3b8" stroke-width="1.5"/>
    <text x="260" y="195" fill="#94a3b8" font-family="Arial" font-size="10" text-anchor="middle">10°</text>
    
    <path d="M 300 180 V 185" stroke="#94a3b8" stroke-width="1.5"/>
    <text x="300" y="195" fill="#94a3b8" font-family="Arial" font-size="10" text-anchor="middle">12°</text>
    
    <path d="M 340 180 V 185" stroke="#94a3b8" stroke-width="1.5"/>
    <text x="340" y="195" fill="#94a3b8" font-family="Arial" font-size="10" text-anchor="middle">14°</text>
  </g>
  
  <!-- Y-axis ticks and labels -->
  <g>
    <path d="M 55 180 H 60" stroke="#94a3b8" stroke-width="1.5"/>
    <text x="50" y="183" fill="#94a3b8" font-family="Arial" font-size="10" text-anchor="end">0.0</text>
    
    <path d="M 55 140 H 60" stroke="#94a3b8" stroke-width="1.5"/>
    <text x="50" y="143" fill="#94a3b8" font-family="Arial" font-size="10" text-anchor="end">0.5</text>
    
    <path d="M 55 100 H 60" stroke="#94a3b8" stroke-width="1.5"/>
    <text x="50" y="103" fill="#94a3b8" font-family="Arial" font-size="10" text-anchor="end">1.0</text>
    
    <path d="M 55 60 H 60" stroke="#94a3b8" stroke-width="1.5"/>
    <text x="50" y="63" fill="#94a3b8" font-family="Arial" font-size="10" text-anchor="end">1.5</text>
    
    <path d="M 55 20 H 60" stroke="#94a3b8" stroke-width="1.5"/>
    <text x="50" y="23" fill="#94a3b8" font-family="Arial" font-size="10" text-anchor="end">2.0</text>
  </g>
  
  <!-- Data point markers -->
  <circle cx="60" cy="180" r="3" fill="#3b82f6"/>
  <circle cx="100" cy="160" r="3" fill="#3b82f6"/>
  <circle cx="140" cy="135" r="3" fill="#3b82f6"/>
  <circle cx="180" cy="112" r="3" fill="#3b82f6"/>
  <circle cx="220" cy="90" r="3" fill="#3b82f6"/>
  <circle cx="260" cy="68" r="3" fill="#3b82f6"/>
  <circle cx="300" cy="46" r="3" fill="#3b82f6"/>
  <circle cx="340" cy="24" r="3" fill="#3b82f6"/>
  
  <!-- Data point highlighted -->
  <circle cx="180" cy="112" r="5" stroke="#38bdf8" stroke-width="2" fill="none"/>
  
  <!-- Curve through points -->
  <path d="M 60 180 C 80 165, 90 155, 100 160 C 110 165, 130 140, 140 135 C 150 130, 170 115, 180 112 C 190 109, 210 95, 220 90 C 230 85, 250 73, 260 68 C 270 63, 290 51, 300 46 C 310 41, 330 29, 340 24" 
        stroke="url(#lineGradient)" stroke-width="2" fill="none"/>
  
  <!-- Title -->
  <text x="20" y="20" fill="#f1f5f9" font-family="Arial" font-size="12" font-weight="bold">Lift Coefficient vs. Angle of Attack</text>
</svg>